<mxfile host="app.diagrams.net" agent="Mozilla/5.0 (Windows NT 10.0; Win64; x64) AppleWebKit/537.36 (KHTML, like Gecko) Chrome/126.0.0.0 Safari/537.36" version="24.7.5">
  <diagram id="R2lEEEUBdFMjLlhIrx00" name="Page-1">
    <mxGraphModel dx="1060" dy="667" grid="1" gridSize="10" guides="1" tooltips="1" connect="1" arrows="1" fold="1" page="1" pageScale="1" pageWidth="850" pageHeight="1100" math="0" shadow="0" extFonts="Permanent Marker^https://fonts.googleapis.com/css?family=Permanent+Marker">
      <root>
        <mxCell id="0" />
        <mxCell id="1" parent="0" />
        <mxCell id="EKyBH4JotkoG87dhuZKr-1" value="mahasiswa" style="whiteSpace=wrap;html=1;align=center;" vertex="1" parent="1">
          <mxGeometry x="140" y="310" width="100" height="40" as="geometry" />
        </mxCell>
        <mxCell id="EKyBH4JotkoG87dhuZKr-2" value="jurusan" style="ellipse;whiteSpace=wrap;html=1;align=center;" vertex="1" parent="1">
          <mxGeometry y="300" width="100" height="40" as="geometry" />
        </mxCell>
        <mxCell id="EKyBH4JotkoG87dhuZKr-3" value="alamat" style="ellipse;whiteSpace=wrap;html=1;align=center;" vertex="1" parent="1">
          <mxGeometry x="10" y="360" width="100" height="40" as="geometry" />
        </mxCell>
        <mxCell id="EKyBH4JotkoG87dhuZKr-4" value="nim" style="ellipse;whiteSpace=wrap;html=1;align=center;fontStyle=4;" vertex="1" parent="1">
          <mxGeometry x="10" y="240" width="100" height="40" as="geometry" />
        </mxCell>
        <mxCell id="EKyBH4JotkoG87dhuZKr-6" value="nama" style="ellipse;whiteSpace=wrap;html=1;align=center;" vertex="1" parent="1">
          <mxGeometry x="130" y="210" width="100" height="40" as="geometry" />
        </mxCell>
        <mxCell id="EKyBH4JotkoG87dhuZKr-7" value="alamat" style="ellipse;whiteSpace=wrap;html=1;align=center;" vertex="1" parent="1">
          <mxGeometry x="240" y="240" width="100" height="40" as="geometry" />
        </mxCell>
        <mxCell id="EKyBH4JotkoG87dhuZKr-8" value="jurusan" style="ellipse;whiteSpace=wrap;html=1;align=center;" vertex="1" parent="1">
          <mxGeometry x="310" y="190" width="100" height="40" as="geometry" />
        </mxCell>
        <mxCell id="EKyBH4JotkoG87dhuZKr-9" value="nama_belakang" style="ellipse;whiteSpace=wrap;html=1;align=center;" vertex="1" parent="1">
          <mxGeometry x="240" y="150" width="100" height="40" as="geometry" />
        </mxCell>
        <mxCell id="EKyBH4JotkoG87dhuZKr-10" value="nama_tengah" style="ellipse;whiteSpace=wrap;html=1;align=center;" vertex="1" parent="1">
          <mxGeometry x="130" y="110" width="100" height="40" as="geometry" />
        </mxCell>
        <mxCell id="EKyBH4JotkoG87dhuZKr-11" value="nama_depan" style="ellipse;whiteSpace=wrap;html=1;align=center;" vertex="1" parent="1">
          <mxGeometry x="20" y="150" width="100" height="40" as="geometry" />
        </mxCell>
        <mxCell id="EKyBH4JotkoG87dhuZKr-12" value="mendaftar" style="shape=rhombus;perimeter=rhombusPerimeter;whiteSpace=wrap;html=1;align=center;" vertex="1" parent="1">
          <mxGeometry x="340" y="300" width="120" height="60" as="geometry" />
        </mxCell>
        <mxCell id="EKyBH4JotkoG87dhuZKr-14" value="nim" style="ellipse;whiteSpace=wrap;html=1;align=center;fontStyle=4;" vertex="1" parent="1">
          <mxGeometry x="420" y="190" width="100" height="40" as="geometry" />
        </mxCell>
        <mxCell id="EKyBH4JotkoG87dhuZKr-15" value="nama" style="ellipse;whiteSpace=wrap;html=1;align=center;" vertex="1" parent="1">
          <mxGeometry x="470" y="250" width="100" height="40" as="geometry" />
        </mxCell>
        <mxCell id="EKyBH4JotkoG87dhuZKr-22" value="" style="endArrow=none;html=1;rounded=0;exitX=1;exitY=0.5;exitDx=0;exitDy=0;entryX=0;entryY=0.5;entryDx=0;entryDy=0;" edge="1" parent="1" source="EKyBH4JotkoG87dhuZKr-1" target="EKyBH4JotkoG87dhuZKr-12">
          <mxGeometry relative="1" as="geometry">
            <mxPoint x="340" y="310" as="sourcePoint" />
            <mxPoint x="500" y="310" as="targetPoint" />
          </mxGeometry>
        </mxCell>
        <mxCell id="EKyBH4JotkoG87dhuZKr-71" value="many" style="edgeLabel;html=1;align=center;verticalAlign=middle;resizable=0;points=[];" vertex="1" connectable="0" parent="EKyBH4JotkoG87dhuZKr-22">
          <mxGeometry relative="1" as="geometry">
            <mxPoint as="offset" />
          </mxGeometry>
        </mxCell>
        <mxCell id="EKyBH4JotkoG87dhuZKr-25" value="" style="endArrow=none;html=1;rounded=0;exitX=1;exitY=1;exitDx=0;exitDy=0;entryX=0.5;entryY=0;entryDx=0;entryDy=0;" edge="1" parent="1" source="EKyBH4JotkoG87dhuZKr-7" target="EKyBH4JotkoG87dhuZKr-12">
          <mxGeometry relative="1" as="geometry">
            <mxPoint x="340" y="310" as="sourcePoint" />
            <mxPoint x="500" y="310" as="targetPoint" />
          </mxGeometry>
        </mxCell>
        <mxCell id="EKyBH4JotkoG87dhuZKr-27" value="" style="endArrow=none;html=1;rounded=0;exitX=0.63;exitY=1;exitDx=0;exitDy=0;exitPerimeter=0;entryX=0.5;entryY=0;entryDx=0;entryDy=0;" edge="1" parent="1" source="EKyBH4JotkoG87dhuZKr-8" target="EKyBH4JotkoG87dhuZKr-12">
          <mxGeometry relative="1" as="geometry">
            <mxPoint x="340" y="310" as="sourcePoint" />
            <mxPoint x="500" y="310" as="targetPoint" />
          </mxGeometry>
        </mxCell>
        <mxCell id="EKyBH4JotkoG87dhuZKr-28" value="" style="endArrow=none;html=1;rounded=0;entryX=0.5;entryY=1;entryDx=0;entryDy=0;exitX=0.5;exitY=0;exitDx=0;exitDy=0;" edge="1" parent="1" source="EKyBH4JotkoG87dhuZKr-12" target="EKyBH4JotkoG87dhuZKr-14">
          <mxGeometry relative="1" as="geometry">
            <mxPoint x="470" y="290" as="sourcePoint" />
            <mxPoint x="500" y="310" as="targetPoint" />
          </mxGeometry>
        </mxCell>
        <mxCell id="EKyBH4JotkoG87dhuZKr-29" value="" style="endArrow=none;html=1;rounded=0;entryX=0;entryY=1;entryDx=0;entryDy=0;exitX=0.5;exitY=0;exitDx=0;exitDy=0;" edge="1" parent="1" source="EKyBH4JotkoG87dhuZKr-12" target="EKyBH4JotkoG87dhuZKr-15">
          <mxGeometry relative="1" as="geometry">
            <mxPoint x="340" y="310" as="sourcePoint" />
            <mxPoint x="500" y="310" as="targetPoint" />
          </mxGeometry>
        </mxCell>
        <mxCell id="EKyBH4JotkoG87dhuZKr-30" value="" style="endArrow=none;html=1;rounded=0;exitX=0.43;exitY=0.025;exitDx=0;exitDy=0;entryX=0.5;entryY=1;entryDx=0;entryDy=0;exitPerimeter=0;" edge="1" parent="1" source="EKyBH4JotkoG87dhuZKr-1" target="EKyBH4JotkoG87dhuZKr-6">
          <mxGeometry relative="1" as="geometry">
            <mxPoint x="210" y="300" as="sourcePoint" />
            <mxPoint x="210" y="260" as="targetPoint" />
          </mxGeometry>
        </mxCell>
        <mxCell id="EKyBH4JotkoG87dhuZKr-31" value="" style="endArrow=none;html=1;rounded=0;exitX=0.69;exitY=-0.025;exitDx=0;exitDy=0;exitPerimeter=0;entryX=0;entryY=0.5;entryDx=0;entryDy=0;" edge="1" parent="1" source="EKyBH4JotkoG87dhuZKr-3" target="EKyBH4JotkoG87dhuZKr-1">
          <mxGeometry relative="1" as="geometry">
            <mxPoint x="330" y="310" as="sourcePoint" />
            <mxPoint x="490" y="310" as="targetPoint" />
          </mxGeometry>
        </mxCell>
        <mxCell id="EKyBH4JotkoG87dhuZKr-32" value="" style="endArrow=none;html=1;rounded=0;exitX=1;exitY=0.5;exitDx=0;exitDy=0;entryX=0;entryY=0.5;entryDx=0;entryDy=0;" edge="1" parent="1" source="EKyBH4JotkoG87dhuZKr-2" target="EKyBH4JotkoG87dhuZKr-1">
          <mxGeometry relative="1" as="geometry">
            <mxPoint x="340" y="310" as="sourcePoint" />
            <mxPoint x="170" y="314" as="targetPoint" />
          </mxGeometry>
        </mxCell>
        <mxCell id="EKyBH4JotkoG87dhuZKr-33" value="anggota&lt;div&gt;perpustakaan&lt;/div&gt;" style="whiteSpace=wrap;html=1;align=center;" vertex="1" parent="1">
          <mxGeometry x="610" y="310" width="100" height="40" as="geometry" />
        </mxCell>
        <mxCell id="EKyBH4JotkoG87dhuZKr-34" value="meminjam" style="shape=rhombus;perimeter=rhombusPerimeter;whiteSpace=wrap;html=1;align=center;" vertex="1" parent="1">
          <mxGeometry x="600" y="450" width="120" height="60" as="geometry" />
        </mxCell>
        <mxCell id="EKyBH4JotkoG87dhuZKr-35" value="buku" style="whiteSpace=wrap;html=1;align=center;" vertex="1" parent="1">
          <mxGeometry x="610" y="630" width="100" height="40" as="geometry" />
        </mxCell>
        <mxCell id="EKyBH4JotkoG87dhuZKr-36" value="nama-anggota" style="ellipse;whiteSpace=wrap;html=1;align=center;fontStyle=4;" vertex="1" parent="1">
          <mxGeometry x="530" y="210" width="100" height="40" as="geometry" />
        </mxCell>
        <mxCell id="EKyBH4JotkoG87dhuZKr-38" value="nama" style="ellipse;whiteSpace=wrap;html=1;align=center;" vertex="1" parent="1">
          <mxGeometry x="590" y="160" width="100" height="40" as="geometry" />
        </mxCell>
        <mxCell id="EKyBH4JotkoG87dhuZKr-39" value="jurusan" style="ellipse;whiteSpace=wrap;html=1;align=center;" vertex="1" parent="1">
          <mxGeometry x="700" y="160" width="100" height="40" as="geometry" />
        </mxCell>
        <mxCell id="EKyBH4JotkoG87dhuZKr-40" value="masa-berlaku" style="ellipse;whiteSpace=wrap;html=1;align=center;" vertex="1" parent="1">
          <mxGeometry x="740" y="230" width="100" height="40" as="geometry" />
        </mxCell>
        <mxCell id="EKyBH4JotkoG87dhuZKr-41" value="" style="endArrow=none;html=1;rounded=0;exitX=0.5;exitY=1;exitDx=0;exitDy=0;entryX=0.5;entryY=0;entryDx=0;entryDy=0;" edge="1" parent="1" source="EKyBH4JotkoG87dhuZKr-10" target="EKyBH4JotkoG87dhuZKr-6">
          <mxGeometry relative="1" as="geometry">
            <mxPoint x="440" y="310" as="sourcePoint" />
            <mxPoint x="600" y="310" as="targetPoint" />
          </mxGeometry>
        </mxCell>
        <mxCell id="EKyBH4JotkoG87dhuZKr-42" value="" style="endArrow=none;html=1;rounded=0;exitX=0.42;exitY=1.05;exitDx=0;exitDy=0;exitPerimeter=0;entryX=0.5;entryY=0;entryDx=0;entryDy=0;" edge="1" parent="1" source="EKyBH4JotkoG87dhuZKr-11" target="EKyBH4JotkoG87dhuZKr-6">
          <mxGeometry relative="1" as="geometry">
            <mxPoint x="440" y="310" as="sourcePoint" />
            <mxPoint x="600" y="310" as="targetPoint" />
          </mxGeometry>
        </mxCell>
        <mxCell id="EKyBH4JotkoG87dhuZKr-43" value="" style="endArrow=none;html=1;rounded=0;exitX=0.95;exitY=0.675;exitDx=0;exitDy=0;exitPerimeter=0;entryX=0;entryY=0.5;entryDx=0;entryDy=0;" edge="1" parent="1" source="EKyBH4JotkoG87dhuZKr-4" target="EKyBH4JotkoG87dhuZKr-1">
          <mxGeometry relative="1" as="geometry">
            <mxPoint x="350" y="310" as="sourcePoint" />
            <mxPoint x="160" y="330" as="targetPoint" />
          </mxGeometry>
        </mxCell>
        <mxCell id="EKyBH4JotkoG87dhuZKr-44" value="" style="endArrow=none;html=1;rounded=0;exitX=0.42;exitY=1;exitDx=0;exitDy=0;exitPerimeter=0;entryX=0.5;entryY=0;entryDx=0;entryDy=0;" edge="1" parent="1" source="EKyBH4JotkoG87dhuZKr-9" target="EKyBH4JotkoG87dhuZKr-6">
          <mxGeometry relative="1" as="geometry">
            <mxPoint x="350" y="310" as="sourcePoint" />
            <mxPoint x="510" y="310" as="targetPoint" />
          </mxGeometry>
        </mxCell>
        <mxCell id="EKyBH4JotkoG87dhuZKr-45" value="" style="endArrow=none;html=1;rounded=0;entryX=0.57;entryY=0.975;entryDx=0;entryDy=0;entryPerimeter=0;exitX=0.5;exitY=0;exitDx=0;exitDy=0;" edge="1" parent="1" source="EKyBH4JotkoG87dhuZKr-33" target="EKyBH4JotkoG87dhuZKr-38">
          <mxGeometry relative="1" as="geometry">
            <mxPoint x="710" y="310" as="sourcePoint" />
            <mxPoint x="510" y="310" as="targetPoint" />
          </mxGeometry>
        </mxCell>
        <mxCell id="EKyBH4JotkoG87dhuZKr-46" value="" style="endArrow=none;html=1;rounded=0;entryX=0.5;entryY=1;entryDx=0;entryDy=0;exitX=0.5;exitY=0;exitDx=0;exitDy=0;" edge="1" parent="1" source="EKyBH4JotkoG87dhuZKr-33" target="EKyBH4JotkoG87dhuZKr-39">
          <mxGeometry relative="1" as="geometry">
            <mxPoint x="730" y="310" as="sourcePoint" />
            <mxPoint x="510" y="310" as="targetPoint" />
          </mxGeometry>
        </mxCell>
        <mxCell id="EKyBH4JotkoG87dhuZKr-50" value="" style="endArrow=none;html=1;rounded=0;entryX=0.36;entryY=0.975;entryDx=0;entryDy=0;entryPerimeter=0;exitX=0.5;exitY=0;exitDx=0;exitDy=0;" edge="1" parent="1" source="EKyBH4JotkoG87dhuZKr-33" target="EKyBH4JotkoG87dhuZKr-40">
          <mxGeometry relative="1" as="geometry">
            <mxPoint x="490" y="310" as="sourcePoint" />
            <mxPoint x="650" y="310" as="targetPoint" />
          </mxGeometry>
        </mxCell>
        <mxCell id="EKyBH4JotkoG87dhuZKr-51" value="" style="endArrow=none;html=1;rounded=0;exitX=0.6;exitY=1;exitDx=0;exitDy=0;exitPerimeter=0;entryX=0.5;entryY=0;entryDx=0;entryDy=0;" edge="1" parent="1" source="EKyBH4JotkoG87dhuZKr-36" target="EKyBH4JotkoG87dhuZKr-33">
          <mxGeometry relative="1" as="geometry">
            <mxPoint x="490" y="310" as="sourcePoint" />
            <mxPoint x="650" y="310" as="targetPoint" />
          </mxGeometry>
        </mxCell>
        <mxCell id="EKyBH4JotkoG87dhuZKr-53" value="" style="endArrow=none;html=1;rounded=0;exitX=0.5;exitY=1;exitDx=0;exitDy=0;entryX=0.5;entryY=0;entryDx=0;entryDy=0;" edge="1" parent="1" source="EKyBH4JotkoG87dhuZKr-33" target="EKyBH4JotkoG87dhuZKr-34">
          <mxGeometry relative="1" as="geometry">
            <mxPoint x="490" y="310" as="sourcePoint" />
            <mxPoint x="710" y="470" as="targetPoint" />
          </mxGeometry>
        </mxCell>
        <mxCell id="EKyBH4JotkoG87dhuZKr-78" value="1" style="edgeLabel;html=1;align=center;verticalAlign=middle;resizable=0;points=[];" vertex="1" connectable="0" parent="EKyBH4JotkoG87dhuZKr-53">
          <mxGeometry x="-0.4909" y="1" relative="1" as="geometry">
            <mxPoint as="offset" />
          </mxGeometry>
        </mxCell>
        <mxCell id="EKyBH4JotkoG87dhuZKr-55" value="nomor-anggota" style="ellipse;whiteSpace=wrap;html=1;align=center;fontStyle=4;" vertex="1" parent="1">
          <mxGeometry x="730" y="390" width="100" height="40" as="geometry" />
        </mxCell>
        <mxCell id="EKyBH4JotkoG87dhuZKr-56" value="nomor-buku" style="ellipse;whiteSpace=wrap;html=1;align=center;fontStyle=4;" vertex="1" parent="1">
          <mxGeometry x="750" y="450" width="100" height="40" as="geometry" />
        </mxCell>
        <mxCell id="EKyBH4JotkoG87dhuZKr-58" value="denda" style="ellipse;whiteSpace=wrap;html=1;align=center;" vertex="1" parent="1">
          <mxGeometry x="700" y="550" width="100" height="40" as="geometry" />
        </mxCell>
        <mxCell id="EKyBH4JotkoG87dhuZKr-59" value="judul-buku" style="ellipse;whiteSpace=wrap;html=1;align=center;" vertex="1" parent="1">
          <mxGeometry x="740" y="500" width="100" height="40" as="geometry" />
        </mxCell>
        <mxCell id="EKyBH4JotkoG87dhuZKr-60" value="kode-peminjaman" style="ellipse;whiteSpace=wrap;html=1;align=center;" vertex="1" parent="1">
          <mxGeometry x="490" y="400" width="100" height="40" as="geometry" />
        </mxCell>
        <mxCell id="EKyBH4JotkoG87dhuZKr-61" value="tanggal-kembali" style="ellipse;whiteSpace=wrap;html=1;align=center;" vertex="1" parent="1">
          <mxGeometry x="430" y="450" width="100" height="40" as="geometry" />
        </mxCell>
        <mxCell id="EKyBH4JotkoG87dhuZKr-62" value="tanggal-pinjam" style="ellipse;whiteSpace=wrap;html=1;align=center;" vertex="1" parent="1">
          <mxGeometry x="470" y="510" width="100" height="40" as="geometry" />
        </mxCell>
        <mxCell id="EKyBH4JotkoG87dhuZKr-64" value="" style="endArrow=none;html=1;rounded=0;entryX=0.5;entryY=1;entryDx=0;entryDy=0;exitX=0.5;exitY=0;exitDx=0;exitDy=0;" edge="1" parent="1" source="EKyBH4JotkoG87dhuZKr-35" target="EKyBH4JotkoG87dhuZKr-34">
          <mxGeometry relative="1" as="geometry">
            <mxPoint x="490" y="510" as="sourcePoint" />
            <mxPoint x="650" y="510" as="targetPoint" />
          </mxGeometry>
        </mxCell>
        <mxCell id="EKyBH4JotkoG87dhuZKr-79" value="many" style="edgeLabel;html=1;align=center;verticalAlign=middle;resizable=0;points=[];" vertex="1" connectable="0" parent="EKyBH4JotkoG87dhuZKr-64">
          <mxGeometry x="0.5" relative="1" as="geometry">
            <mxPoint as="offset" />
          </mxGeometry>
        </mxCell>
        <mxCell id="EKyBH4JotkoG87dhuZKr-65" value="" style="endArrow=none;html=1;rounded=0;exitX=0.58;exitY=1;exitDx=0;exitDy=0;exitPerimeter=0;entryX=0;entryY=0.5;entryDx=0;entryDy=0;" edge="1" parent="1" source="EKyBH4JotkoG87dhuZKr-60" target="EKyBH4JotkoG87dhuZKr-34">
          <mxGeometry relative="1" as="geometry">
            <mxPoint x="490" y="510" as="sourcePoint" />
            <mxPoint x="650" y="510" as="targetPoint" />
          </mxGeometry>
        </mxCell>
        <mxCell id="EKyBH4JotkoG87dhuZKr-66" value="" style="endArrow=none;html=1;rounded=0;entryX=0;entryY=0.5;entryDx=0;entryDy=0;exitX=0.6;exitY=0;exitDx=0;exitDy=0;exitPerimeter=0;" edge="1" parent="1" source="EKyBH4JotkoG87dhuZKr-62" target="EKyBH4JotkoG87dhuZKr-34">
          <mxGeometry relative="1" as="geometry">
            <mxPoint x="562" y="520" as="sourcePoint" />
            <mxPoint x="650" y="510" as="targetPoint" />
          </mxGeometry>
        </mxCell>
        <mxCell id="EKyBH4JotkoG87dhuZKr-67" value="" style="endArrow=none;html=1;rounded=0;entryX=0;entryY=0.5;entryDx=0;entryDy=0;exitX=0.99;exitY=0.7;exitDx=0;exitDy=0;exitPerimeter=0;" edge="1" parent="1" source="EKyBH4JotkoG87dhuZKr-61" target="EKyBH4JotkoG87dhuZKr-34">
          <mxGeometry relative="1" as="geometry">
            <mxPoint x="490" y="510" as="sourcePoint" />
            <mxPoint x="650" y="510" as="targetPoint" />
          </mxGeometry>
        </mxCell>
        <mxCell id="EKyBH4JotkoG87dhuZKr-69" value="" style="endArrow=none;html=1;rounded=0;entryX=0.08;entryY=0.8;entryDx=0;entryDy=0;entryPerimeter=0;exitX=1;exitY=0.5;exitDx=0;exitDy=0;exitPerimeter=0;" edge="1" parent="1" source="EKyBH4JotkoG87dhuZKr-34" target="EKyBH4JotkoG87dhuZKr-55">
          <mxGeometry relative="1" as="geometry">
            <mxPoint x="490" y="610" as="sourcePoint" />
            <mxPoint x="650" y="610" as="targetPoint" />
          </mxGeometry>
        </mxCell>
        <mxCell id="EKyBH4JotkoG87dhuZKr-72" value="" style="endArrow=none;html=1;rounded=0;exitX=1;exitY=0.5;exitDx=0;exitDy=0;entryX=0;entryY=0.5;entryDx=0;entryDy=0;" edge="1" parent="1" source="EKyBH4JotkoG87dhuZKr-12" target="EKyBH4JotkoG87dhuZKr-33">
          <mxGeometry relative="1" as="geometry">
            <mxPoint x="220" y="210" as="sourcePoint" />
            <mxPoint x="380" y="210" as="targetPoint" />
          </mxGeometry>
        </mxCell>
        <mxCell id="EKyBH4JotkoG87dhuZKr-73" value="many" style="edgeLabel;html=1;align=center;verticalAlign=middle;resizable=0;points=[];" vertex="1" connectable="0" parent="EKyBH4JotkoG87dhuZKr-72">
          <mxGeometry y="-1" relative="1" as="geometry">
            <mxPoint as="offset" />
          </mxGeometry>
        </mxCell>
        <mxCell id="EKyBH4JotkoG87dhuZKr-74" value="" style="endArrow=none;html=1;rounded=0;exitX=1;exitY=0.5;exitDx=0;exitDy=0;entryX=0.29;entryY=0.075;entryDx=0;entryDy=0;entryPerimeter=0;" edge="1" parent="1" source="EKyBH4JotkoG87dhuZKr-34" target="EKyBH4JotkoG87dhuZKr-59">
          <mxGeometry relative="1" as="geometry">
            <mxPoint x="500" y="410" as="sourcePoint" />
            <mxPoint x="660" y="410" as="targetPoint" />
          </mxGeometry>
        </mxCell>
        <mxCell id="EKyBH4JotkoG87dhuZKr-75" value="" style="endArrow=none;html=1;rounded=0;entryX=0.04;entryY=0.325;entryDx=0;entryDy=0;entryPerimeter=0;exitX=1;exitY=0.5;exitDx=0;exitDy=0;" edge="1" parent="1" source="EKyBH4JotkoG87dhuZKr-34" target="EKyBH4JotkoG87dhuZKr-56">
          <mxGeometry relative="1" as="geometry">
            <mxPoint x="500" y="410" as="sourcePoint" />
            <mxPoint x="660" y="410" as="targetPoint" />
          </mxGeometry>
        </mxCell>
        <mxCell id="EKyBH4JotkoG87dhuZKr-77" value="" style="endArrow=none;html=1;rounded=0;entryX=0.42;entryY=0.05;entryDx=0;entryDy=0;entryPerimeter=0;exitX=1;exitY=0.5;exitDx=0;exitDy=0;" edge="1" parent="1" source="EKyBH4JotkoG87dhuZKr-34" target="EKyBH4JotkoG87dhuZKr-58">
          <mxGeometry relative="1" as="geometry">
            <mxPoint x="500" y="410" as="sourcePoint" />
            <mxPoint x="660" y="410" as="targetPoint" />
          </mxGeometry>
        </mxCell>
        <mxCell id="EKyBH4JotkoG87dhuZKr-80" value="judul-buku" style="ellipse;whiteSpace=wrap;html=1;align=center;" vertex="1" parent="1">
          <mxGeometry x="490" y="670" width="100" height="40" as="geometry" />
        </mxCell>
        <mxCell id="EKyBH4JotkoG87dhuZKr-81" value="nomor-buku" style="ellipse;whiteSpace=wrap;html=1;align=center;fontStyle=4;" vertex="1" parent="1">
          <mxGeometry x="510" y="720" width="100" height="40" as="geometry" />
        </mxCell>
        <mxCell id="EKyBH4JotkoG87dhuZKr-82" value="pengarang" style="ellipse;whiteSpace=wrap;html=1;align=center;" vertex="1" parent="1">
          <mxGeometry x="750" y="680" width="90" height="40" as="geometry" />
        </mxCell>
        <mxCell id="EKyBH4JotkoG87dhuZKr-83" value="jenis-buku" style="ellipse;whiteSpace=wrap;html=1;align=center;" vertex="1" parent="1">
          <mxGeometry x="740" y="730" width="100" height="40" as="geometry" />
        </mxCell>
        <mxCell id="EKyBH4JotkoG87dhuZKr-84" value="penerbit" style="ellipse;whiteSpace=wrap;html=1;align=center;" vertex="1" parent="1">
          <mxGeometry x="680" y="770" width="100" height="40" as="geometry" />
        </mxCell>
        <mxCell id="EKyBH4JotkoG87dhuZKr-85" value="tahun-terbit" style="ellipse;whiteSpace=wrap;html=1;align=center;" vertex="1" parent="1">
          <mxGeometry x="570" y="770" width="100" height="40" as="geometry" />
        </mxCell>
        <mxCell id="EKyBH4JotkoG87dhuZKr-86" value="" style="endArrow=none;html=1;rounded=0;entryX=0.5;entryY=1;entryDx=0;entryDy=0;exitX=0.41;exitY=0;exitDx=0;exitDy=0;exitPerimeter=0;" edge="1" parent="1" source="EKyBH4JotkoG87dhuZKr-84" target="EKyBH4JotkoG87dhuZKr-35">
          <mxGeometry relative="1" as="geometry">
            <mxPoint x="500" y="610" as="sourcePoint" />
            <mxPoint x="660" y="610" as="targetPoint" />
          </mxGeometry>
        </mxCell>
        <mxCell id="EKyBH4JotkoG87dhuZKr-87" value="" style="endArrow=none;html=1;rounded=0;entryX=0.5;entryY=1;entryDx=0;entryDy=0;exitX=0.57;exitY=0.025;exitDx=0;exitDy=0;exitPerimeter=0;" edge="1" parent="1" source="EKyBH4JotkoG87dhuZKr-85" target="EKyBH4JotkoG87dhuZKr-35">
          <mxGeometry relative="1" as="geometry">
            <mxPoint x="500" y="610" as="sourcePoint" />
            <mxPoint x="660" y="610" as="targetPoint" />
          </mxGeometry>
        </mxCell>
        <mxCell id="EKyBH4JotkoG87dhuZKr-88" value="" style="endArrow=none;html=1;rounded=0;entryX=0.5;entryY=1;entryDx=0;entryDy=0;exitX=1;exitY=0.25;exitDx=0;exitDy=0;exitPerimeter=0;" edge="1" parent="1" source="EKyBH4JotkoG87dhuZKr-81" target="EKyBH4JotkoG87dhuZKr-35">
          <mxGeometry relative="1" as="geometry">
            <mxPoint x="500" y="610" as="sourcePoint" />
            <mxPoint x="660" y="610" as="targetPoint" />
          </mxGeometry>
        </mxCell>
        <mxCell id="EKyBH4JotkoG87dhuZKr-89" value="" style="endArrow=none;html=1;rounded=0;entryX=0.5;entryY=1;entryDx=0;entryDy=0;exitX=1;exitY=0.5;exitDx=0;exitDy=0;" edge="1" parent="1" source="EKyBH4JotkoG87dhuZKr-80" target="EKyBH4JotkoG87dhuZKr-35">
          <mxGeometry relative="1" as="geometry">
            <mxPoint x="500" y="610" as="sourcePoint" />
            <mxPoint x="650" y="610" as="targetPoint" />
          </mxGeometry>
        </mxCell>
        <mxCell id="EKyBH4JotkoG87dhuZKr-90" value="" style="endArrow=none;html=1;rounded=0;exitX=0.5;exitY=1;exitDx=0;exitDy=0;entryX=0.062;entryY=0.325;entryDx=0;entryDy=0;entryPerimeter=0;" edge="1" parent="1" source="EKyBH4JotkoG87dhuZKr-35" target="EKyBH4JotkoG87dhuZKr-82">
          <mxGeometry relative="1" as="geometry">
            <mxPoint x="500" y="610" as="sourcePoint" />
            <mxPoint x="810" y="690" as="targetPoint" />
          </mxGeometry>
        </mxCell>
        <mxCell id="EKyBH4JotkoG87dhuZKr-91" value="" style="endArrow=none;html=1;rounded=0;entryX=0;entryY=0;entryDx=0;entryDy=0;exitX=0.5;exitY=1;exitDx=0;exitDy=0;" edge="1" parent="1" source="EKyBH4JotkoG87dhuZKr-35" target="EKyBH4JotkoG87dhuZKr-83">
          <mxGeometry relative="1" as="geometry">
            <mxPoint x="690" y="690" as="sourcePoint" />
            <mxPoint x="800" y="740" as="targetPoint" />
          </mxGeometry>
        </mxCell>
      </root>
    </mxGraphModel>
  </diagram>
</mxfile>
